<?xml version="1.0" encoding="utf-8"?>
<svg viewBox="0 0 512 512" style="enable-background:new 0 0 512 512;" xmlns="http://www.w3.org/2000/svg">
  <g transform="matrix(-1, 0, 0, -1, 482.020522, 503.000503)">
    <g>
      <path d="M 149.352 150.735 L -42.084 150.735 C -46.045 150.735 -49.075 154.211 -48.585 158.142 C -45.888 179.769 -52.786 190.12 -42.089 190.12 L 149.339 190.12 C 172.154 271.47 292.272 254.253 292.272 170.428 C 292.272 86.324 172.148 69.742 149.352 150.735 Z" transform="matrix(0, -1, 1, 0, -48.637608, 292.272533)" style="fill: rgb(100, 255, 218); fill-rule: nonzero;"/>
    </g>
  </g>
  <g transform="matrix(-1, 0, 0, -1, 494.020523, 519.000504)">
    <g>
      <path d="M 432.404 103.104 C 425.119 99.348 418.271 94.666 412.122 89.227 C 409.155 86.601 404.572 87.14 402.336 90.41 L 317.534 214.42 C 271.207 198.746 221.378 232.92 221.378 283.426 C 221.378 323.573 254.047 356.236 294.203 356.236 C 355.921 356.236 389.552 283.91 350.015 236.697 L 434.844 112.647 C 437.077 109.38 435.922 104.917 432.404 103.104 Z" transform="matrix(0, -1, 1, 0, 106.784523, 550.581032)" style="fill: rgb(2, 12, 27);"/>
    </g>
  </g>
  <g transform="matrix(-1, 0, 0, -1, 479.020522, 523.000504)">
    <g>
      <g>
        <path d="M 289.136 514.348 L 204.614 390.747 C 244.614 343.891 211.451 270.7 149.213 270.7 C 109.058 270.7 76.388 303.363 76.388 343.511 C 76.388 394.708 126.384 427.639 171.915 412.707 L 256.605 536.553 C 258.829 539.802 263.392 540.377 266.346 537.771 C 272.196 532.609 278.714 528.086 285.82 524.346 C 286.106 524.195 286.394 524.045 286.682 523.898 C 290.21 522.088 291.373 517.621 289.136 514.348 Z" transform="matrix(0, -1, 1, 0, -221.720551, 588.388336)" style="fill: rgb(10, 25, 47);"/>
      </g>
    </g>
  </g>
</svg>